<svg xmlns="http://www.w3.org/2000/svg" width="200" height="200" viewBox="0 0 200 200">
<g>
<path d="M 42.43,187.75 L 41.78,186.07 L 40.22,182.02 L 39.41,179.93 L 37.69,175.49 L 36.83,173.26 L 35.16,168.94 L 32.93,163.20 L 28.17,150.90 L 37.20,136.45 L 38.44,134.46 L 40.76,130.84 L 41.88,129.11 L 43.79,126.24 L 44.23,125.59 L 45.00,124.48 L 45.36,123.96 L 45.95,123.14 L 46.22,122.77 L 46.61,122.29 L 46.93,122.00 L 46.96,122.00 L 47.08,122.19 L 47.15,122.32 L 47.36,122.76 L 47.60,123.26 L 48.32,124.94 L 48.72,125.89 L 49.74,128.38 L 50.29,129.73 L 51.57,132.94 L 52.24,134.63 L 53.74,138.46 L 54.52,140.44 L 56.20,144.79 L 57.07,147.01 L 58.89,151.77 L 61.74,159.25 L 62.71,161.81 L 64.58,166.77 L 65.51,169.21 L 67.27,173.85 L 68.13,176.12 L 69.72,180.34 L 70.50,182.38 L 71.90,186.07 L 72.57,187.84 L 73.73,190.89 L 74.27,192.32 L 75.15,194.63 L 75.55,195.68 L 76.10,197.14 L 76.22,197.44 L 76.38,197.88 L 76.53,198.25 L 76.69,198.65 L 76.51,199.21 L 76.40,199.33 L 75.94,199.52 L 75.66,199.60 L 74.81,199.73 L 74.33,199.79 L 73.00,199.87 L 72.27,199.91 L 70.39,199.95 L 69.36,199.97 L 66.82,199.99 L 62.19,200.00 L 47.17,200.00 L 42.43,187.75 M 84.00,167.74 L 84.00,135.49 L 54.50,106.00 L 52.47,103.97 L 48.57,100.06 L 46.66,98.13 L 43.05,94.47 L 41.28,92.68 L 38.04,89.37 L 36.47,87.76 L 33.67,84.88 L 32.33,83.50 L 30.06,81.12 L 28.99,80.00 L 27.33,78.22 L 26.58,77.41 L 25.60,76.31 L 25.40,76.08 L 25.15,75.76 L 25.00,75.50 L 25.00,75.47 L 25.19,75.21 L 25.32,75.04 L 25.76,74.54 L 26.01,74.26 L 26.68,73.52 L 27.05,73.12 L 27.94,72.17 L 28.41,71.67 L 29.51,70.51 L 30.09,69.90 L 31.39,68.55 L 32.73,67.16 L 35.94,63.85 L 37.63,62.11 L 41.46,58.20 L 43.45,56.19 L 47.79,51.79 L 50.02,49.53 L 54.77,44.75 L 62.25,37.25 L 99.51,0.00 L 137.26,37.76 L 175.00,75.51 L 145.50,105.00 L 116.00,134.49 L 116.00,167.24 L 116.00,200.00 L 100.00,200.00 L 84.00,200.00 L 84.00,167.74 M 113.31,88.19 L 126.09,75.39 L 113.13,61.95 L 100.18,48.51 L 88.84,59.42 L 87.28,60.92 L 84.24,63.85 L 82.76,65.27 L 80.10,67.82 L 79.48,68.42 L 78.35,69.50 L 77.81,70.02 L 76.88,70.91 L 76.44,71.32 L 75.75,71.98 L 75.02,72.67 L 72.54,75.01 L 85.50,88.00 L 87.29,89.79 L 90.62,93.05 L 91.42,93.83 L 92.92,95.26 L 93.64,95.95 L 94.96,97.18 L 95.60,97.77 L 96.70,98.77 L 97.23,99.24 L 98.08,99.97 L 98.47,100.30 L 99.03,100.73 L 99.50,101.00 L 99.57,101.00 L 99.97,100.74 L 100.21,100.57 L 100.91,99.99 L 101.29,99.66 L 102.26,98.80 L 102.78,98.34 L 103.98,97.24 L 105.23,96.08 L 108.26,93.17 L 109.84,91.63 M 123.25,198.25 L 123.27,198.18 L 123.39,197.83 L 123.46,197.62 L 123.68,197.02 L 123.92,196.35 L 124.68,194.30 L 125.09,193.18 L 126.15,190.33 L 126.72,188.82 L 128.03,185.31 L 128.72,183.49 L 130.23,179.45 L 131.01,177.39 L 132.68,172.98 L 134.37,168.50 L 137.96,159.02 L 139.75,154.29 L 143.23,145.16 L 144.07,142.95 L 145.65,138.79 L 146.43,136.77 L 147.83,133.09 L 148.51,131.32 L 149.69,128.27 L 150.24,126.83 L 151.13,124.54 L 151.53,123.50 L 152.08,122.11 L 152.20,121.83 L 152.35,121.46 L 152.47,121.21 L 152.48,121.19 L 152.71,121.47 L 152.85,121.65 L 153.30,122.30 L 153.56,122.66 L 154.20,123.62 L 154.54,124.14 L 155.35,125.36 L 156.19,126.65 L 158.21,129.78 L 159.25,131.41 L 161.48,134.92 L 162.60,136.69 L 164.78,140.17 L 165.84,141.87 L 167.71,144.89 L 168.14,145.60 L 168.91,146.86 L 169.27,147.47 L 169.87,148.47 L 170.14,148.94 L 170.54,149.64 L 170.87,150.28 L 170.89,150.34 L 170.75,150.96 L 170.65,151.35 L 170.27,152.56 L 170.06,153.24 L 169.47,154.98 L 169.15,155.90 L 168.38,158.10 L 167.97,159.25 L 167.04,161.83 L 166.55,163.16 L 165.48,166.05 L 161.88,175.60 L 152.53,200.00 L 137.65,200.00 L 135.94,200.00 L 133.08,199.99 L 131.74,199.98 L 129.56,199.95 L 128.55,199.93 L 126.96,199.87 L 126.23,199.83 L 125.15,199.73 L 124.66,199.67 L 124.00,199.51 L 123.72,199.42 L 123.39,199.20 L 123.13,198.96 Z" fill="rgba(228,229,231,1)"/>
</g>
</svg>